<?xml version="1.0" encoding="UTF-8"?>
<svg id="Ebene_1" data-name="Ebene 1" xmlns="http://www.w3.org/2000/svg" viewBox="0 0 42.34 19.98">
  <defs>
    <style>
      .cls-1 {
        fill: #1d1d1b;
      }
    </style>
  </defs>
  <polygon class="cls-1" points=".98 6.72 2.11 5.62 4.23 8.82 5.39 8.82 2.78 4.98 5.27 2.57 4.04 2.57 .98 5.58 .98 .42 0 .42 0 8.82 .98 8.82 .98 6.72"/>
  <path class="cls-1" d="M8.62,8.96c1.91,0,2.99-1.35,2.99-3.26s-1.15-3.27-2.99-3.27-2.99,1.38-2.99,3.27,1.1,3.26,2.99,3.26ZM8.62,3.26c1.2,0,1.97.92,1.97,2.41s-.71,2.45-1.97,2.45-1.97-.94-1.97-2.45.77-2.41,1.97-2.41Z"/>
  <polygon class="cls-1" points="14.97 .42 13.98 .42 12.17 8.82 13.15 8.82 14.97 .42"/>
  <polygon class="cls-1" points="15.79 8.82 17.61 .42 16.62 .42 14.81 8.82 15.79 8.82"/>
  <path class="cls-1" d="M22.61,7.12c-.35.59-.94,1-1.77,1-1.26,0-1.97-.85-1.99-2.24h4.64v-.23c0-1.78-.97-3.23-2.77-3.23-1.91,0-2.89,1.4-2.89,3.24s1.06,3.3,2.97,3.3c1.19,0,2.06-.52,2.63-1.4l-.82-.43ZM20.7,3.23c1.08,0,1.7.74,1.76,1.89h-3.62c.08-1.13.73-1.89,1.86-1.89Z"/>
  <path class="cls-1" d="M32.01,7.15v-3.83h1.75v-.76h-1.75V.9h-.98v1.67h-2.24l-3.06,3.01V.42h-.98v8.4h.98v-2.1l1.13-1.09,2.12,3.19h1.15l-2.6-3.84,1.7-1.66h1.8v3.96c0,.97.42,1.68,1.71,1.68.47,0,.88-.1,1.2-.19v-.8c-.26.08-.65.16-1.01.16-.72,0-.92-.36-.92-.97Z"/>
  <path class="cls-1" d="M35.39,0c-.35,0-.66.3-.66.65s.31.65.66.65.66-.3.66-.65-.3-.65-.66-.65Z"/>
  <rect class="cls-1" x="34.89" y="2.57" width=".98" height="6.25"/>
  <polygon class="cls-1" points="41.32 2.57 39.56 7.82 37.85 2.57 36.77 2.57 38.97 8.82 40.12 8.82 42.34 2.57 41.32 2.57"/>
  <path class="cls-1" d="M.98,12.78v-1.19h-.98v6.25h.98v-2.93c0-1.87.86-2.43,1.88-2.43.1,0,.22,0,.4.01v-1.02c-.12-.01-.29-.02-.42-.02-.76,0-1.46.43-1.86,1.33Z"/>
  <path class="cls-1" d="M6.65,11.45c-1.91,0-2.89,1.4-2.89,3.24s1.06,3.3,2.97,3.3c1.19,0,2.06-.52,2.63-1.4l-.82-.43c-.35.59-.94,1-1.77,1-1.26,0-1.97-.85-1.99-2.24h4.64v-.23c0-1.78-.97-3.23-2.77-3.23ZM4.78,14.15c.08-1.13.73-1.89,1.86-1.89s1.7.74,1.76,1.89h-3.62Z"/>
  <path class="cls-1" d="M12.91,11.45c-1.67,0-2.51.95-2.51,2.06,0,.61.28,1.08.72,1.42-.43.31-.62.66-.62,1.02,0,.47.22.8.67,1.02-.65.31-.97.77-.97,1.32,0,.95.76,1.69,2.84,1.69,1.82,0,2.91-.74,2.91-1.86,0-.97-.65-1.75-2.45-1.75h-1.31c-.6,0-.85-.22-.85-.62,0-.18.12-.37.29-.53.38.18.84.26,1.29.26,1.55,0,2.53-.77,2.53-1.97,0-.47-.13-.88-.41-1.21.28-.19.55-.26,1.02-.26v-.88c-.7,0-1.22.24-1.56.67-.41-.24-.94-.38-1.61-.38ZM11.87,17.17h1.34c1.37,0,1.79.34,1.79.98s-.68,1.07-1.96,1.07c-1.43,0-1.93-.42-1.93-1.05,0-.37.16-.68.75-1ZM12.92,14.75c-.98,0-1.56-.48-1.56-1.26s.55-1.29,1.57-1.29,1.56.52,1.56,1.29-.56,1.26-1.57,1.26Z"/>
  <path class="cls-1" d="M19.36,11.45c-1.91,0-2.89,1.4-2.89,3.24s1.06,3.3,2.97,3.3c1.19,0,2.06-.52,2.63-1.4l-.82-.43c-.35.59-.94,1-1.77,1-1.26,0-1.97-.85-1.99-2.24h4.64v-.23c0-1.78-.97-3.23-2.77-3.23ZM17.48,14.15c.08-1.13.73-1.89,1.86-1.89s1.7.74,1.76,1.89h-3.62Z"/>
  <path class="cls-1" d="M26.31,11.45c-.79,0-1.5.35-1.94,1.12v-.97h-.98v6.25h.98v-3.5c0-1.28.78-2.05,1.73-2.05,1.07,0,1.37.72,1.37,1.88v3.67h.98v-4.01c0-1.5-.73-2.39-2.13-2.39Z"/>
</svg>