<?xml version="1.0" encoding="UTF-8"?><svg id="Logo_einzeilig" xmlns="http://www.w3.org/2000/svg" viewBox="0 0 841.89 595.28"><defs><style>.cls-1{fill:#040000;}</style></defs><path class="cls-1" d="M274.78,298.26l12.63-12.43h5.05l-10.25,9.96,10.75,15.85h-4.75l-8.77-13.17-4.66,4.51v8.66h-4.06v-34.66h4.06v21.29Z"/><path class="cls-1" d="M318.87,298.75c0,7.87-4.46,13.47-12.33,13.47s-12.33-5.79-12.33-13.47,4.65-13.52,12.33-13.52,12.33,5.94,12.33,13.52ZM298.42,298.65c0,6.24,2.97,10.1,8.12,10.1s8.12-3.86,8.12-10.1-3.17-9.95-8.12-9.95-8.12,3.76-8.12,9.95Z"/><path class="cls-1" d="M361.63,305.93l2.33,1.63c-2.33,2.92-5.3,4.65-9.31,4.65-6.24,0-9.41-4.11-9.41-10.69,0-8.57,5.5-16.29,13.32-16.29,3.71,0,7.03,1.88,7.03,5.75,0,5.64-6.54,8.77-16.14,9.01-.05.59-.1,1.24-.1,1.83,0,5.1,2.13,7.73,5.75,7.73,2.42,0,4.8-1.29,6.54-3.61ZM349.75,298.01c8.72-.65,11.69-4.01,11.69-7.28,0-1.78-.84-2.82-2.87-2.82-4.35,0-7.73,4.71-8.81,10.1Z"/><path class="cls-1" d="M391.06,309.89l-.99,2.53c-5.5-1.04-9.16-6.59-10.55-11.93l.5-1.34c3.67-.15,6.98-4.95,6.98-8.47,0-1.48-.5-2.33-1.88-2.33-4.16,0-10.79,7.87-12.48,23.27h-3.81l4.11-34.66h3.81l-4.06,25.45h.15c3.32-11.64,7.73-17.18,13.32-17.18,3.22,0,5.1,1.93,5.1,5.15,0,4.75-3.52,8.07-7.77,9.41.84,3.91,3.47,8.71,7.58,10.1Z"/><path class="cls-1" d="M403.95,312.22c-4.66,0-7.38-2.03-6.64-8.71l1.73-14.86h-3.52l.3-2.82h3.52l.79-6.29,3.86-.6-.84,6.88h7.83l-.3,2.82h-7.82l-1.73,14.76c-.5,4.16.5,5.89,4.21,5.89.59,0,1.29,0,2.08-.1l-.49,2.77c-1.04.15-2.08.25-2.97.25Z"/><path class="cls-1" d="M416.58,311.63h-3.81l3.02-25.8h3.81l-3.02,25.8ZM415.74,278.1c0-1.69,1.19-2.87,2.92-2.87,1.44,0,2.48,1.09,2.48,2.48,0,1.64-1.19,2.87-2.87,2.87-1.48,0-2.52-1.09-2.52-2.48Z"/><path class="cls-1" d="M433.38,311.63h-4.56l-5-25.8h4.11l3.91,22.78c4.71-6.83,7.63-15.25,8.66-22.78h4.21c-1.58,8.32-5.15,16.19-11.34,25.8Z"/><path class="cls-1" d="M462.25,285.83h3.81l-2.97,16.89h.15c1.98-9.11,4.9-17.48,11.34-17.48.35,0,.75,0,1.09.05l-.69,4.46c-.3-.1-.79-.15-1.24-.15-4.81,0-8.52,6.24-10.55,22.04h-3.86l2.92-25.8Z"/><path class="cls-1" d="M492.61,305.93l2.33,1.63c-2.33,2.92-5.3,4.65-9.31,4.65-6.24,0-9.41-4.11-9.41-10.69,0-8.57,5.5-16.29,13.32-16.29,3.71,0,7.03,1.88,7.03,5.75,0,5.64-6.54,8.77-16.14,9.01-.05.59-.1,1.24-.1,1.83,0,5.1,2.13,7.73,5.75,7.73,2.42,0,4.8-1.29,6.54-3.61ZM480.73,298.01c8.72-.65,11.69-4.01,11.69-7.28,0-1.78-.84-2.82-2.87-2.82-4.35,0-7.73,4.71-8.81,10.1Z"/><path class="cls-1" d="M498.42,318.61l.89-2.68c1.44.65,3.42,1.29,5.89,1.29,4.65,0,8.52-2.13,9.41-9.06l.65-5.15h-.15c-2.43,4.95-5.99,8.02-10,8.02s-6.19-2.73-6.19-7.73c0-8.37,6.39-18.08,13.02-18.08,2.38,0,4.41,1.24,4.95,3.37l.35-2.77h3.81l-2.62,22.14c-.99,8.66-5.94,12.08-12.92,12.08-3.12,0-5.4-.69-7.08-1.44ZM516.19,293.01c0-3.56-1.48-5.2-3.61-5.2-5.1,0-9.41,9.01-9.41,15.3,0,3.52,1.34,5.05,3.47,5.05,5.05,0,9.56-8.91,9.56-15.15Z"/><path class="cls-1" d="M541.66,305.93l2.33,1.63c-2.33,2.92-5.3,4.65-9.31,4.65-6.24,0-9.41-4.11-9.41-10.69,0-8.57,5.5-16.29,13.32-16.29,3.71,0,7.03,1.88,7.03,5.75,0,5.64-6.54,8.77-16.14,9.01-.05.59-.1,1.24-.1,1.83,0,5.1,2.13,7.73,5.75,7.73,2.42,0,4.8-1.29,6.54-3.61ZM529.78,298.01c8.72-.65,11.69-4.01,11.69-7.28,0-1.78-.84-2.82-2.87-2.82-4.35,0-7.73,4.71-8.81,10.1Z"/><path class="cls-1" d="M551.88,285.83h3.81l-2.97,16.59h.15c2.77-14.02,7.98-17.18,12.28-17.18,5,0,6.69,3.91,5.79,11l-1.83,15.4h-3.81l1.83-15.35c.55-4.6-.05-7.83-3.31-7.83-4.01,0-9.02,5.45-11.14,23.18h-3.81l3.02-25.8Z"/><path class="cls-1" d="M326.85,311.63h-3.94l4.08-34.66h3.94l-4.08,34.66Z"/><path class="cls-1" d="M338.66,311.63h-3.94l4.08-34.66h3.94l-4.08,34.66Z"/></svg>